<?xml version="1.0" encoding="utf-8"?>
<!-- Generator: Adobe Illustrator 24.2.1, SVG Export Plug-In . SVG Version: 6.00 Build 0)  -->
<svg version="1.1" id="Layer_1" xmlns="http://www.w3.org/2000/svg" xmlns:xlink="http://www.w3.org/1999/xlink" x="0px" y="0px"
	 viewBox="0 0 250 60" style="enable-background:new 0 0 250 60;" xml:space="preserve">
<style type="text/css">
	.st0{fill:#FFFFFF;}
</style>
<path class="st0" d="M14.6,48.9h9.2c1.6,0,2.9-0.7,3.9-2c1-1.3,1.5-3.1,1.5-5.4s-0.5-4-1.4-5.2c-1-1.2-2.2-1.8-3.7-1.8h-9.5V48.9z
	 M14.6,27.1h7.6c1.2,0,2.1-0.7,2.9-2c0.8-1.3,1.1-2.9,1.1-4.7c0-1.8-0.4-3.4-1.1-4.6c-0.7-1.2-1.7-1.8-2.9-1.8h-7.6V27.1z M22,6.7
	c4.3,0,8,1.1,11.2,3.4c3.2,2.3,4.7,5.5,4.7,9.8c0,2-0.5,3.8-1.4,5.4c-0.9,1.5-2.2,2.9-3.9,4.1h-1c2.7,0.4,5.1,1.6,7.2,3.5
	c2.1,1.9,3.1,4.7,3.1,8.3c0,4.6-1.7,8.3-5,11c-3.3,2.7-8.2,4-14.6,4H2.8V6.7H22z"/>
<path class="st0" d="M62.1,25c-2.1,0-3.8,1.1-5,3.4c-1.2,2.3-1.8,5.2-1.8,8.8c0,7.9,2.3,11.9,6.8,11.9c4.5,0,6.8-4,6.8-11.9
	C68.9,29.1,66.6,25,62.1,25 M62.1,56.6c-5.9,0-10.5-1.7-13.7-5.1c-3.2-3.4-4.8-8.2-4.8-14.3c0-2.7,0.5-5.3,1.4-7.7
	c0.9-2.4,2.2-4.5,3.8-6.3c1.6-1.8,3.5-3.1,5.8-4.1c2.3-1,4.8-1.5,7.6-1.5c2.7,0,5.2,0.5,7.5,1.5c2.3,1,4.3,2.3,5.9,4.1
	c1.6,1.8,2.9,3.8,3.8,6.3c0.9,2.4,1.4,5,1.4,7.8c0,5.9-1.6,10.6-4.8,14.2C72.6,54.9,68,56.6,62.1,56.6"/>
<path class="st0" d="M101.2,25c-2.1,0-3.8,1.1-5,3.4c-1.2,2.3-1.8,5.2-1.8,8.8c0,7.9,2.3,11.9,6.8,11.9c4.5,0,6.8-4,6.8-11.9
	C108,29.1,105.7,25,101.2,25 M101.2,56.6c-5.9,0-10.5-1.7-13.7-5.1c-3.2-3.4-4.8-8.2-4.8-14.3c0-2.7,0.4-5.3,1.4-7.7
	c0.9-2.4,2.2-4.5,3.8-6.3c1.6-1.8,3.5-3.1,5.8-4.1c2.3-1,4.8-1.5,7.6-1.5c2.7,0,5.2,0.5,7.5,1.5c2.3,1,4.3,2.3,5.9,4.1
	c1.6,1.8,2.9,3.8,3.8,6.3c0.9,2.4,1.4,5,1.4,7.8c0,5.9-1.6,10.6-4.8,14.2C111.7,54.9,107.1,56.6,101.2,56.6"/>
<polygon class="st0" points="136.3,40.9 134.2,43.2 134.2,56.2 122.6,56.2 122.6,9.9 134.4,3.4 134.4,28 141.8,19.7 155.5,19.7 
	144.4,32.6 157.1,56.2 144.7,56.2 "/>
<polygon class="st0" points="178.1,56.2 165.4,56.2 165.4,14 151.4,14 151.4,6.7 191.9,6.7 191.9,14 178.1,14 "/>
<path class="st0" d="M195.3,18H207v38.2h-11.7V18z M201.2,14.1c-1.9,0-3.5-0.5-4.7-1.4c-1.2-1-1.8-2.1-1.8-3.5
	c0-1.4,0.5-2.6,1.6-3.6c1.1-1,2.7-1.4,4.8-1.4c1.8,0,3.3,0.5,4.5,1.4c1.2,1,1.8,2.1,1.8,3.6c0,1.4-0.6,2.5-1.9,3.5
	C204.3,13.6,202.9,14.1,201.2,14.1"/>
<polygon class="st0" points="235.3,37.1 247,56.2 234.5,56.2 229.1,47.4 223.8,56.2 211.3,56.2 223,37.1 211.1,18 223.8,18 
	229.1,26.9 234.5,18 247.2,18 "/>
</svg>
